<?xml version="1.0" standalone="no"?>
<!DOCTYPE svg PUBLIC "-//W3C//DTD SVG 20010904//EN"
 "http://www.w3.org/TR/2001/REC-SVG-20010904/DTD/svg10.dtd">
<svg version="1.0" xmlns="http://www.w3.org/2000/svg"
 width="243.000000pt" height="208.000000pt" viewBox="0 0 243.000000 208.000000"
 preserveAspectRatio="xMidYMid meet">
<metadata>
Created by potrace 1.11, written by Peter Selinger 2001-2013
</metadata>
<g transform="translate(0.000000,208.000000) scale(0.100000,-0.100000)"
fill="#000000" stroke="none">
<path d="M1115 2060 c-55 -13 -159 -67 -223 -114 -34 -25 -64 -46 -66 -46 -3
0 -7 13 -11 29 -9 44 -50 56 -180 56 -164 -1 -285 -44 -285 -100 0 -18 -15
-35 -53 -64 -30 -21 -75 -57 -100 -79 -26 -22 -56 -43 -67 -47 -30 -9 -50 -57
-50 -118 0 -60 35 -279 50 -315 8 -18 3 -31 -29 -74 -64 -84 -83 -145 -89
-285 -3 -92 0 -140 13 -200 52 -238 178 -417 351 -500 58 -28 82 -34 140 -34
94 -1 214 46 344 133 l60 40 123 -40 c148 -48 336 -127 539 -228 160 -79 166
-80 243 -52 110 41 310 231 387 368 23 42 26 58 32 215 13 297 61 610 143 927
25 98 43 184 39 193 -3 9 -18 20 -33 26 -16 5 -37 25 -48 46 -13 24 -36 45
-66 60 -63 31 -216 54 -375 56 l-133 2 -6 35 c-9 47 -31 88 -52 94 -77 23
-521 36 -598 16z m455 -30 c124 -16 127 -17 144 -61 9 -22 16 -52 15 -67 -1
-22 -5 -17 -26 31 -19 41 -32 57 -45 57 -29 0 -363 -187 -379 -212 -4 -6 -10
-46 -13 -89 -8 -85 -5 -82 -81 -94 -49 -7 -297 27 -349 49 -40 17 -41 22 -26
112 17 93 27 108 108 169 96 72 146 95 231 105 96 11 334 11 421 0z m-821 -61
c40 -14 39 -22 -6 -42 -109 -46 -386 -52 -358 -7 8 12 99 41 159 50 79 12 170
11 205 -1z m1416 -116 c64 -14 125 -37 125 -47 0 -9 -250 -187 -372 -266 -139
-89 -137 -87 -104 -160 16 -36 45 -36 118 1 133 67 376 255 400 311 15 33 33
36 48 7 9 -17 8 -25 -7 -41 -63 -71 -360 -285 -475 -344 -27 -13 -48 -30 -48
-37 0 -6 7 -48 14 -92 8 -44 17 -147 21 -230 l7 -150 -26 37 c-15 21 -43 49
-64 63 l-37 25 -2 163 c-1 174 -22 314 -48 333 -52 38 -657 140 -817 137 -87
-1 -88 -1 -88 23 0 13 3 24 7 24 3 0 56 -9 116 -21 84 -16 137 -20 226 -17
l116 4 133 87 c73 48 137 87 143 87 5 0 9 -10 9 -23 0 -67 82 -102 245 -102
178 0 245 31 245 115 0 63 -17 96 -63 119 l-42 21 75 -6 c41 -3 107 -13 145
-21z m-181 -17 c32 -13 36 -19 27 -30 -16 -19 -92 -35 -202 -43 l-89 -6 0 -48
c0 -37 -4 -49 -15 -49 -18 0 -22 79 -4 97 7 7 -4 12 -39 17 -26 3 -57 12 -67
20 -18 13 -17 14 14 30 70 37 299 44 375 12z m-1549 -82 c44 -6 253 2 306 12
l27 5 -2 -66 -1 -67 -86 4 c-56 2 -91 -1 -100 -9 -29 -24 -144 -73 -198 -84
-65 -13 -194 -7 -232 11 -42 19 -55 52 -34 84 24 37 50 49 74 36 11 -6 77 -9
153 -9 l133 2 -134 8 c-73 4 -136 10 -139 13 -8 9 19 36 78 76 l55 38 28 -24
c15 -12 47 -26 72 -30z m155 -142 c0 -17 -110 -73 -180 -91 -54 -14 -74 -23
-72 -34 3 -18 -80 -31 -124 -18 -71 20 -104 47 -104 86 0 11 10 9 46 -6 34
-16 67 -21 132 -21 93 0 152 16 247 65 58 30 55 29 55 19z m454 -89 c127 -44
276 -201 336 -353 11 -28 20 -56 20 -64 0 -12 -68 -56 -88 -56 -5 0 -17 21
-27 48 -47 125 -134 240 -232 305 -92 60 -154 82 -230 81 -66 0 -70 6 -20 33
66 34 155 37 241 6z m217 -23 c201 -37 365 -83 378 -108 13 -25 41 -234 50
-372 l7 -121 42 -37 c40 -35 72 -99 72 -142 0 -29 -48 -78 -83 -86 -17 -3 -35
-12 -39 -18 -4 -6 -8 -55 -8 -109 0 -103 -15 -270 -30 -324 -6 -25 -4 -35 11
-49 16 -14 21 -15 35 -3 10 8 23 29 31 47 16 39 53 268 53 333 0 39 4 48 26
60 14 7 37 27 52 44 l25 30 -7 -110 c-11 -174 -52 -429 -78 -477 -16 -31 -61
-20 -209 51 -79 37 -201 92 -271 122 -70 30 -124 55 -119 57 5 2 48 -11 97
-28 48 -16 92 -26 96 -22 5 5 18 100 29 213 11 112 24 224 30 249 41 176 9
384 -88 558 -40 74 -144 188 -211 232 -55 37 -46 37 109 10z m-661 -25 c0 -33
-3 -37 -62 -64 -35 -16 -94 -36 -133 -45 -38 -9 -106 -34 -149 -56 -44 -22
-82 -37 -84 -35 -6 6 -42 157 -42 177 0 16 2 16 38 0 59 -26 198 -21 297 12
44 14 87 30 95 36 28 18 40 11 40 -25z m1697 -41 c-3 -20 -13 -44 -22 -54 -9
-10 -23 -42 -31 -71 -19 -71 -54 -365 -54 -455 l0 -71 -40 -12 c-21 -6 -42
-16 -46 -22 -3 -6 -5 -69 -5 -141 l2 -131 -38 -39 c-40 -41 -63 -49 -63 -20 0
46 22 268 36 361 36 249 150 580 226 659 18 17 34 32 36 32 3 0 2 -16 -1 -36z
m-1692 -108 c82 -37 150 -90 212 -165 63 -77 136 -218 160 -311 18 -73 24
-243 8 -259 -7 -7 -9 2 -7 29 2 22 0 40 -5 40 -19 0 -53 -32 -53 -51 0 -29
-17 -23 -23 8 -3 16 0 31 6 35 8 5 5 8 -8 9 -13 0 -15 3 -6 6 11 4 11 7 0 13
-10 7 -10 11 0 24 11 13 11 16 -3 16 -19 0 -22 20 -3 21 10 0 10 2 0 6 -7 2
-13 11 -13 18 0 7 6 16 13 18 7 3 5 6 -5 6 -21 1 -23 12 -6 29 9 9 8 12 -5 12
-20 0 -23 16 -4 23 7 3 4 6 -7 6 -13 1 -17 6 -13 21 3 11 1 20 -5 20 -6 0 -8
9 -5 19 3 11 -1 22 -9 25 -7 3 -11 12 -8 19 3 8 -3 17 -13 21 -15 6 -15 8 -3
16 12 8 12 10 -4 10 -13 0 -17 5 -13 20 3 14 0 20 -11 20 -8 0 -12 3 -9 6 4 4
-2 15 -13 24 -12 10 -18 24 -14 33 4 10 0 15 -13 14 -10 -1 -17 4 -16 11 2 6
-4 12 -12 12 -8 0 -15 7 -15 15 0 8 -5 15 -11 15 -6 0 -8 7 -5 16 5 12 1 14
-15 9 -18 -6 -20 -4 -14 14 5 17 3 20 -11 14 -10 -3 -22 0 -28 8 -16 20 -90
57 -131 65 -19 3 -35 10 -35 14 0 4 -20 5 -45 2 -58 -6 -57 3 3 23 64 20 147
13 217 -19z m-103 -70 c193 -91 332 -320 354 -585 22 -264 -118 -481 -312
-481 -55 0 -148 29 -204 65 -72 45 -172 157 -219 245 -81 152 -114 377 -76
519 64 244 245 338 457 237z m1738 -188 c-6 -40 -14 -194 -17 -342 l-6 -268
-39 -58 c-55 -83 -157 -190 -239 -250 -38 -29 -72 -50 -74 -48 -3 3 -1 18 4
34 5 16 12 41 15 56 6 26 36 41 36 18 0 -18 31 5 106 77 97 93 148 172 139
212 -8 36 -12 37 -37 14 -17 -15 -18 -12 -18 106 l0 121 33 14 c17 8 39 17 48
19 13 4 17 29 22 144 6 130 27 278 35 241 2 -9 -2 -50 -8 -90z m-810 -219 l0
-100 -56 -26 c-30 -14 -57 -23 -59 -22 -2 2 1 24 5 49 5 25 9 68 10 96 0 50 1
51 48 77 26 15 48 27 50 27 1 0 2 -45 2 -101z"/>
<path d="M857 1747 c-4 -10 -7 -35 -7 -54 0 -31 3 -35 21 -30 13 3 28 -1 37
-9 14 -14 16 -14 24 1 9 15 11 15 22 -1 10 -12 15 -14 20 -5 6 9 11 9 22 0 11
-9 18 -9 26 -1 8 8 16 7 30 -1 15 -10 20 -9 27 2 6 8 11 9 15 3 9 -14 89 -13
98 2 4 6 8 25 7 41 l0 30 -17 -30 -17 -30 -3 28 c-2 15 -7 27 -11 27 -4 0 -14
-12 -22 -27 l-13 -28 -4 33 c-3 31 -22 47 -22 18 0 -7 -6 -19 -14 -25 -12 -10
-15 -8 -18 9 -4 28 -22 27 -28 -1 -9 -36 -30 -35 -30 1 0 18 -4 29 -10 25 -5
-3 -10 -15 -10 -26 0 -10 -4 -19 -10 -19 -5 0 -10 15 -10 33 l-1 32 -19 -35
c-15 -27 -19 -30 -20 -15 0 11 -4 27 -10 35 -7 11 -11 8 -21 -15 l-13 -30 -5
40 c-5 30 -8 36 -14 22z"/>
<path d="M1475 1355 c3 -22 13 -80 20 -129 38 -238 43 -576 13 -862 -10 -102
-8 -138 7 -122 3 3 15 101 26 219 16 171 19 250 14 394 -9 258 -40 483 -71
521 -14 18 -15 16 -9 -21z"/>
<path d="M255 1132 c-53 -25 -88 -68 -114 -138 -65 -173 -12 -393 129 -535 86
-87 170 -129 255 -129 73 0 114 22 157 86 54 81 70 193 43 317 -55 262 -307
475 -470 399z m162 -33 c48 -23 55 -39 18 -39 -52 0 -113 -48 -135 -105 -42
-111 31 -351 136 -444 27 -24 68 -53 92 -64 46 -23 51 -31 25 -45 -58 -33
-210 91 -273 224 -84 174 -78 353 14 449 48 51 62 54 123 24z m211 -167 c55
-79 64 -127 29 -160 -13 -12 -40 -25 -59 -28 -64 -11 -138 76 -138 161 0 51
46 98 92 93 27 -2 40 -13 76 -66z m-165 -289 c21 -34 40 -50 77 -66 28 -12 50
-25 50 -31 0 -23 -35 -46 -69 -46 -97 0 -175 127 -124 200 16 22 17 22 27 6 6
-10 24 -38 39 -63z"/>
</g>
</svg>
